<mxfile host="app.diagrams.net" agent="Mozilla/5.0 (Windows NT 10.0; Win64; x64) AppleWebKit/537.36 (KHTML, like Gecko) Chrome/134.0.0.0 Safari/537.36" version="26.1.3">
  <diagram name="Page-1" id="LrW8u9sNGymUHOdIpnk3">
    <mxGraphModel dx="1222" dy="655" grid="1" gridSize="10" guides="1" tooltips="1" connect="1" arrows="1" fold="1" page="1" pageScale="1" pageWidth="850" pageHeight="1100" math="0" shadow="0">
      <root>
        <mxCell id="0" />
        <mxCell id="1" parent="0" />
        <mxCell id="1w_DmRib6M-p2RC0_jB8-42" value="" style="rounded=0;whiteSpace=wrap;html=1;fillColor=#F1F1F1;gradientColor=none;" parent="1" vertex="1">
          <mxGeometry x="55" y="300" width="360" height="270" as="geometry" />
        </mxCell>
        <mxCell id="1w_DmRib6M-p2RC0_jB8-7" value="" style="rounded=0;whiteSpace=wrap;html=1;fillColor=#F1F1F1;" parent="1" vertex="1">
          <mxGeometry x="435" y="300" width="360" height="270" as="geometry" />
        </mxCell>
        <mxCell id="1w_DmRib6M-p2RC0_jB8-6" style="edgeStyle=orthogonalEdgeStyle;rounded=0;orthogonalLoop=1;jettySize=auto;html=1;strokeWidth=2;" parent="1" source="1w_DmRib6M-p2RC0_jB8-1" target="1w_DmRib6M-p2RC0_jB8-5" edge="1">
          <mxGeometry relative="1" as="geometry">
            <Array as="points">
              <mxPoint x="215" y="450" />
              <mxPoint x="215" y="405" />
            </Array>
          </mxGeometry>
        </mxCell>
        <mxCell id="1w_DmRib6M-p2RC0_jB8-1" value="&lt;font data-font-src=&quot;https://fonts.googleapis.com/css?family=Montserrat&quot; face=&quot;Montserrat&quot;&gt;&lt;b&gt;Dark Web Crawler&lt;/b&gt;&lt;/font&gt;" style="rounded=0;whiteSpace=wrap;html=1;" parent="1" vertex="1">
          <mxGeometry x="85" y="420" width="120" height="60" as="geometry" />
        </mxCell>
        <mxCell id="1w_DmRib6M-p2RC0_jB8-52" style="edgeStyle=orthogonalEdgeStyle;rounded=0;orthogonalLoop=1;jettySize=auto;html=1;entryX=0;entryY=0.5;entryDx=0;entryDy=0;strokeWidth=3;" parent="1" source="1w_DmRib6M-p2RC0_jB8-5" target="1w_DmRib6M-p2RC0_jB8-8" edge="1">
          <mxGeometry relative="1" as="geometry" />
        </mxCell>
        <mxCell id="1w_DmRib6M-p2RC0_jB8-5" value="Amazon SQS" style="sketch=0;outlineConnect=0;fontColor=#232F3E;gradientColor=none;strokeColor=#ffffff;fillColor=#232F3E;dashed=0;verticalLabelPosition=middle;verticalAlign=bottom;align=center;html=1;whiteSpace=wrap;fontSize=10;fontStyle=1;spacing=3;shape=mxgraph.aws4.productIcon;prIcon=mxgraph.aws4.sqs;" parent="1" vertex="1">
          <mxGeometry x="305" y="355" width="80" height="100" as="geometry" />
        </mxCell>
        <mxCell id="TF4AyPZTtcFYo3NWEkjP-2" style="edgeStyle=orthogonalEdgeStyle;rounded=0;orthogonalLoop=1;jettySize=auto;html=1;strokeWidth=2;" edge="1" parent="1" source="1w_DmRib6M-p2RC0_jB8-8" target="1w_DmRib6M-p2RC0_jB8-9">
          <mxGeometry relative="1" as="geometry" />
        </mxCell>
        <mxCell id="1w_DmRib6M-p2RC0_jB8-8" value="&lt;b&gt;&lt;font data-font-src=&quot;https://fonts.googleapis.com/css?family=Montserrat&quot; face=&quot;Montserrat&quot;&gt;Listener&lt;/font&gt;&lt;/b&gt;" style="rounded=0;whiteSpace=wrap;html=1;" parent="1" vertex="1">
          <mxGeometry x="510" y="320" width="85" height="50" as="geometry" />
        </mxCell>
        <mxCell id="TF4AyPZTtcFYo3NWEkjP-1" style="edgeStyle=orthogonalEdgeStyle;rounded=0;orthogonalLoop=1;jettySize=auto;html=1;entryX=0.5;entryY=1;entryDx=0;entryDy=0;strokeWidth=2;" edge="1" parent="1" source="1w_DmRib6M-p2RC0_jB8-9" target="1w_DmRib6M-p2RC0_jB8-10">
          <mxGeometry relative="1" as="geometry" />
        </mxCell>
        <mxCell id="1w_DmRib6M-p2RC0_jB8-9" value="&lt;b&gt;&lt;font data-font-src=&quot;https://fonts.googleapis.com/css?family=Montserrat&quot; face=&quot;Montserrat&quot;&gt;Blockchain Transactions Scraper&lt;/font&gt;&lt;/b&gt;" style="rounded=0;whiteSpace=wrap;html=1;" parent="1" vertex="1">
          <mxGeometry x="510" y="400" width="85" height="150" as="geometry" />
        </mxCell>
        <mxCell id="1w_DmRib6M-p2RC0_jB8-10" value="&lt;font data-font-src=&quot;https://fonts.googleapis.com/css?family=Montserrat&quot; face=&quot;Montserrat&quot;&gt;&lt;b&gt;Publisher&lt;/b&gt;&lt;/font&gt;" style="rounded=0;whiteSpace=wrap;html=1;" parent="1" vertex="1">
          <mxGeometry x="680" y="320" width="85" height="60" as="geometry" />
        </mxCell>
        <mxCell id="1w_DmRib6M-p2RC0_jB8-37" value="&lt;font data-font-src=&quot;https://fonts.googleapis.com/css?family=Montserrat&quot; face=&quot;Montserrat&quot;&gt;&lt;b&gt;Bitcoin Address&lt;/b&gt;&lt;/font&gt;" style="text;html=1;align=center;verticalAlign=middle;whiteSpace=wrap;rounded=0;" parent="1" vertex="1">
          <mxGeometry x="235" y="410" width="50" height="30" as="geometry" />
        </mxCell>
        <mxCell id="1w_DmRib6M-p2RC0_jB8-43" value="&lt;font data-font-src=&quot;https://fonts.googleapis.com/css?family=Montserrat&quot; face=&quot;Montserrat&quot; style=&quot;font-size: 18px;&quot;&gt;&lt;b&gt;Crawling &amp;amp; Data Collection Layer&lt;/b&gt;&lt;/font&gt;" style="text;html=1;align=center;verticalAlign=middle;whiteSpace=wrap;rounded=0;" parent="1" vertex="1">
          <mxGeometry x="55" y="570" width="360" height="30" as="geometry" />
        </mxCell>
        <mxCell id="1w_DmRib6M-p2RC0_jB8-44" value="&lt;font data-font-src=&quot;https://fonts.googleapis.com/css?family=Montserrat&quot; face=&quot;Montserrat&quot; style=&quot;font-size: 18px;&quot;&gt;&lt;b&gt;Processing Layer&lt;/b&gt;&lt;/font&gt;" style="text;html=1;align=center;verticalAlign=middle;whiteSpace=wrap;rounded=0;" parent="1" vertex="1">
          <mxGeometry x="435" y="570" width="360" height="30" as="geometry" />
        </mxCell>
        <mxCell id="1w_DmRib6M-p2RC0_jB8-48" value="" style="group" parent="1" vertex="1" connectable="0">
          <mxGeometry x="830" y="300" width="375" height="300" as="geometry" />
        </mxCell>
        <mxCell id="1w_DmRib6M-p2RC0_jB8-49" value="" style="rounded=0;whiteSpace=wrap;html=1;fillColor=#F1F1F1;" parent="1w_DmRib6M-p2RC0_jB8-48" vertex="1">
          <mxGeometry width="360" height="270" as="geometry" />
        </mxCell>
        <mxCell id="1w_DmRib6M-p2RC0_jB8-50" value="&lt;font data-font-src=&quot;https://fonts.googleapis.com/css?family=Montserrat&quot; face=&quot;Montserrat&quot; style=&quot;font-size: 18px;&quot;&gt;&lt;b&gt;Frontend &amp;amp; API Layer&lt;/b&gt;&lt;/font&gt;" style="text;html=1;align=center;verticalAlign=middle;whiteSpace=wrap;rounded=0;" parent="1w_DmRib6M-p2RC0_jB8-48" vertex="1">
          <mxGeometry y="270" width="360" height="30" as="geometry" />
        </mxCell>
        <mxCell id="1w_DmRib6M-p2RC0_jB8-20" value="&lt;b&gt;&lt;font face=&quot;Montserrat&quot;&gt;Backend&lt;/font&gt;&lt;/b&gt;" style="rounded=0;whiteSpace=wrap;html=1;" parent="1w_DmRib6M-p2RC0_jB8-48" vertex="1">
          <mxGeometry x="150" y="62.5" width="120" height="60" as="geometry" />
        </mxCell>
        <mxCell id="TF4AyPZTtcFYo3NWEkjP-4" style="edgeStyle=orthogonalEdgeStyle;rounded=0;orthogonalLoop=1;jettySize=auto;html=1;entryX=0.5;entryY=1;entryDx=0;entryDy=0;strokeWidth=2;" edge="1" parent="1w_DmRib6M-p2RC0_jB8-48" source="1w_DmRib6M-p2RC0_jB8-21" target="1w_DmRib6M-p2RC0_jB8-20">
          <mxGeometry relative="1" as="geometry" />
        </mxCell>
        <mxCell id="1w_DmRib6M-p2RC0_jB8-21" value="&lt;font data-font-src=&quot;https://fonts.googleapis.com/css?family=Montserrat&quot; face=&quot;Montserrat&quot;&gt;&lt;b&gt;Frontend&lt;/b&gt;&lt;/font&gt;" style="whiteSpace=wrap;html=1;rounded=0;" parent="1w_DmRib6M-p2RC0_jB8-48" vertex="1">
          <mxGeometry x="150" y="190" width="120" height="60" as="geometry" />
        </mxCell>
        <mxCell id="1w_DmRib6M-p2RC0_jB8-24" value="" style="shape=image;verticalLabelPosition=bottom;verticalAlign=top;imageAspect=0;image=https://imgs.search.brave.com/nOzarZvTe-Rxqgluom51R1D6KRb0_b9_0eToc1voG6U/rs:fit:500:0:0:0/g:ce/aHR0cHM6Ly91cGxv/YWQud2lraW1lZGlh/Lm9yZy93aWtpcGVk/aWEvY29tbW9ucy9k/L2Q5L05vZGUuanNf/bG9nby5zdmc;" parent="1w_DmRib6M-p2RC0_jB8-48" vertex="1">
          <mxGeometry x="40" y="70" width="100" height="52.5" as="geometry" />
        </mxCell>
        <mxCell id="1w_DmRib6M-p2RC0_jB8-28" value="" style="shape=image;verticalLabelPosition=bottom;verticalAlign=top;imageAspect=0;image=https://imgs.search.brave.com/PZF0VvOdrqH0Expxx73IpEGdMTE1ZNNV9JQT727XKpo/rs:fit:500:0:0:0/g:ce/aHR0cHM6Ly9zdGF0/aWMtMDAuaWNvbmR1/Y2suY29tL2Fzc2V0/cy4wMC9yZWFjdC1v/cmlnaW5hbC13b3Jk/bWFyay1pY29uLTIx/MHgyNTYtd2N1aTZ0/YWwucG5n;" parent="1w_DmRib6M-p2RC0_jB8-48" vertex="1">
          <mxGeometry x="55.25" y="180" width="69.5" height="70" as="geometry" />
        </mxCell>
        <mxCell id="1w_DmRib6M-p2RC0_jB8-39" value="&lt;font data-font-src=&quot;https://fonts.googleapis.com/css?family=Montserrat&quot; face=&quot;Montserrat&quot;&gt;&lt;b&gt;GraphQL Requests&lt;/b&gt;&lt;/font&gt;" style="text;html=1;align=center;verticalAlign=middle;whiteSpace=wrap;rounded=0;" parent="1" vertex="1">
          <mxGeometry x="900" y="120" width="132.5" height="30" as="geometry" />
        </mxCell>
        <mxCell id="1w_DmRib6M-p2RC0_jB8-46" value="&lt;font data-font-src=&quot;https://fonts.googleapis.com/css?family=Montserrat&quot; face=&quot;Montserrat&quot; style=&quot;font-size: 18px;&quot;&gt;&lt;b&gt;Storage Layer&lt;/b&gt;&lt;/font&gt;" style="text;html=1;align=center;verticalAlign=middle;whiteSpace=wrap;rounded=0;" parent="1" vertex="1">
          <mxGeometry x="340" y="20" width="550" height="30" as="geometry" />
        </mxCell>
        <mxCell id="1w_DmRib6M-p2RC0_jB8-45" value="" style="rounded=0;whiteSpace=wrap;html=1;fillColor=#F1F1F1;" parent="1" vertex="1">
          <mxGeometry x="340" y="50" width="550" height="200" as="geometry" />
        </mxCell>
        <mxCell id="1w_DmRib6M-p2RC0_jB8-17" value="" style="group" parent="1" vertex="1" connectable="0">
          <mxGeometry x="606.74" y="60" width="231.53" height="120" as="geometry" />
        </mxCell>
        <mxCell id="1w_DmRib6M-p2RC0_jB8-15" value="" style="shape=image;verticalLabelPosition=bottom;verticalAlign=top;imageAspect=0;image=https://imgs.search.brave.com/48cN3rQCpHCMQ1Bc8dcGJSBe9hikqJDOhS7yyAI7tzM/rs:fit:500:0:0:0/g:ce/aHR0cHM6Ly9kaXN0/Lm5lbzRqLmNvbS93/cC1jb250ZW50L3Vw/bG9hZHMvMjAyMjA0/MDIxMDA4MDMvYXVy/YS1kYi1sb2dvLnN2/Zw;" parent="1w_DmRib6M-p2RC0_jB8-17" vertex="1">
          <mxGeometry x="9.65" width="220.35" height="45" as="geometry" />
        </mxCell>
        <mxCell id="1w_DmRib6M-p2RC0_jB8-40" value="&lt;font data-font-src=&quot;https://fonts.googleapis.com/css?family=Montserrat&quot; face=&quot;Montserrat&quot;&gt;&lt;b&gt;Scraped Graph Data&lt;/b&gt;&lt;/font&gt;" style="text;html=1;align=center;verticalAlign=middle;whiteSpace=wrap;rounded=0;" parent="1" vertex="1">
          <mxGeometry x="720" y="210" width="70" height="30" as="geometry" />
        </mxCell>
        <mxCell id="1w_DmRib6M-p2RC0_jB8-3" value="" style="shape=image;verticalLabelPosition=bottom;verticalAlign=top;imageAspect=0;image=https://imgs.search.brave.com/l4WYuasIxuFhbNXr_WoRFlcNyF1_67RuaXAqFoKDwI0/rs:fit:500:0:0:0/g:ce/aHR0cHM6Ly91cGxv/YWQud2lraW1lZGlh/Lm9yZy93aWtpcGVk/aWEvY29tbW9ucy8w/LzAwL01vbmdvZGIu/cG5n;" parent="1" vertex="1">
          <mxGeometry x="415" y="120" width="160" height="60" as="geometry" />
        </mxCell>
        <mxCell id="1w_DmRib6M-p2RC0_jB8-16" value="&lt;font data-font-src=&quot;https://fonts.googleapis.com/css?family=Montserrat&quot; face=&quot;Montserrat&quot;&gt;&lt;b&gt;neo4j Database&lt;/b&gt;&lt;/font&gt;" style="rounded=0;whiteSpace=wrap;html=1;" parent="1" vertex="1">
          <mxGeometry x="654.98" y="120" width="135.02" height="60" as="geometry" />
        </mxCell>
        <mxCell id="TF4AyPZTtcFYo3NWEkjP-5" style="edgeStyle=orthogonalEdgeStyle;rounded=0;orthogonalLoop=1;jettySize=auto;html=1;entryX=0.5;entryY=1;entryDx=0;entryDy=0;strokeWidth=3;" edge="1" parent="1" source="1w_DmRib6M-p2RC0_jB8-10" target="1w_DmRib6M-p2RC0_jB8-16">
          <mxGeometry relative="1" as="geometry" />
        </mxCell>
        <mxCell id="TF4AyPZTtcFYo3NWEkjP-7" style="edgeStyle=orthogonalEdgeStyle;rounded=0;orthogonalLoop=1;jettySize=auto;html=1;entryX=0;entryY=0.5;entryDx=0;entryDy=0;strokeWidth=3;" edge="1" parent="1" source="1w_DmRib6M-p2RC0_jB8-1" target="1w_DmRib6M-p2RC0_jB8-3">
          <mxGeometry relative="1" as="geometry">
            <Array as="points">
              <mxPoint x="145" y="150" />
            </Array>
          </mxGeometry>
        </mxCell>
        <mxCell id="1w_DmRib6M-p2RC0_jB8-55" style="edgeStyle=orthogonalEdgeStyle;rounded=0;orthogonalLoop=1;jettySize=auto;html=1;entryX=1;entryY=0.5;entryDx=0;entryDy=0;strokeWidth=3;" parent="1" source="1w_DmRib6M-p2RC0_jB8-20" target="1w_DmRib6M-p2RC0_jB8-16" edge="1">
          <mxGeometry relative="1" as="geometry">
            <mxPoint x="810" y="130" as="targetPoint" />
            <Array as="points">
              <mxPoint x="1040" y="150" />
            </Array>
          </mxGeometry>
        </mxCell>
        <mxCell id="TF4AyPZTtcFYo3NWEkjP-9" value="&lt;font data-font-src=&quot;https://fonts.googleapis.com/css?family=Montserrat&quot; face=&quot;Montserrat&quot;&gt;&lt;b&gt;Store Crawling Links &amp;amp; Bitcoin Address&lt;/b&gt;&lt;/font&gt;" style="text;html=1;align=center;verticalAlign=middle;whiteSpace=wrap;rounded=0;" vertex="1" parent="1">
          <mxGeometry x="150" y="110" width="180" height="30" as="geometry" />
        </mxCell>
      </root>
    </mxGraphModel>
  </diagram>
</mxfile>
